<svg role="img" viewBox="0 0 50 50" width="60px" height="60px" xmlns="http://www.w3.org/2000/svg">
<defs>
    <style>
         @keyframes glow {
                    50% {
                        filter: drop-shadow(0.001em 0.001em 0.04em #32c766);
                    }
                }

        path {
            animation: glow 2s ease-out infinite;
        }

    </style>

        <linearGradient id="linear-gradient" x1="-100%" y1="0" x2="200%" y2="0" >
            <stop offset="0" stop-color="#32a852">
            </stop>
            <stop offset=".25" stop-color="#32c766">
            <animate attributeName="offset" dur="5s" values="0;1;0"
                repeatCount="indefinite" />
            </stop>
        </linearGradient>

</defs>
    <svg viewBox="0 0 24 24" height="95%" width="95%" overflow="visible">
        <path fill="url(#linear-gradient)" d="M0 0v24h24V0zm9.95 8.002h1.805c.061 0 .111.05.111.111v7.767c0 .061-.05.111-.11.111H9.95c-.061 0-.111-.05-.111-.11v-2.87H7.894v2.87c0 .06-.05.11-.11.11H5.976a.11.11 0 01-.11-.11V8.112c0-.06.05-.11.11-.11h1.806c.061 0 .11.05.11.11v2.869H9.84v-2.87c0-.06.05-.11.11-.11zm2.999 0h5.778c.061 0 .111.05.111.11v7.767a.11.11 0 01-.11.112h-5.78a.11.11 0 01-.11-.11V8.111c0-.06.05-.11.11-.11z"/>
    </svg>
</svg>
